<svg id="visual" viewBox="0 0 900 600" width="900" height="600"
    xmlns="http://www.w3.org/2000/svg"
    xmlns:xlink="http://www.w3.org/1999/xlink" version="1.1">
    <path d="M0 583L25 575.8C50 568.7 100 554.3 150 551.2C200 548 250 556 300 565.5C350 575 400 586 450 582.5C500 579 550 561 600 558.8C650 556.7 700 570.3 750 571.7C800 573 850 562 875 556.5L900 551L900 601L875 601C850 601 800 601 750 601C700 601 650 601 600 601C550 601 500 601 450 601C400 601 350 601 300 601C250 601 200 601 150 601C100 601 50 601 25 601L0 601Z" fill="#ff0066" stroke-linecap="round" stroke-linejoin="miter"></path>
</svg>